<svg width="160" height="160" viewBox="0 0 160 160" fill="none" xmlns="http://www.w3.org/2000/svg">
<path d="M154.144 76.032L140 39.776C139.264 37.856 137.6 36.48 135.584 36.096C134.464 35.872 133.344 35.968 132.288 36.384L17.6642 81.056C14.5922 82.24 13.0882 85.728 14.2722 88.768L28.4162 125.024C29.1522 126.944 30.8162 128.32 32.8322 128.704C33.9522 128.928 35.0722 128.832 36.1282 128.416L150.752 83.744C152.224 83.168 153.408 82.048 154.048 80.576C154.688 79.136 154.72 77.504 154.144 76.032ZM149.376 80.192L34.7522 124.896C34.3682 125.056 33.9522 125.088 33.5682 124.992C32.8322 124.864 32.2562 124.352 31.9682 123.68L17.8562 87.392C17.4402 86.304 17.9842 85.056 19.0722 84.608L133.696 39.936C134.08 39.776 134.496 39.744 134.88 39.84C135.616 39.968 136.192 40.48 136.48 41.152L150.624 77.408C151.008 78.528 150.464 79.776 149.376 80.192ZM104.448 134.208C94.5602 138.048 83.8402 139.04 73.4402 136.992C64.8642 135.328 56.7042 131.616 49.7922 126.304L45.6642 127.904C49.9842 131.52 54.8162 134.496 60.0322 136.8C64.0962 138.592 68.3522 139.904 72.6722 140.768C75.9042 141.408 79.1682 141.76 82.4322 141.856C90.4322 142.08 98.3042 140.704 105.856 137.792C113.376 134.848 120.128 130.528 125.856 124.96C131.392 119.552 135.808 113.216 138.912 106.112C141.184 100.896 142.72 95.424 143.456 89.856L139.328 91.456C136 110.72 122.656 127.104 104.448 134.208ZM99.5522 127.904L102.656 130.784L103.04 126.592L106.72 124.544L102.848 122.88L102.016 118.752L99.2322 121.92L95.0402 121.408L97.1842 125.024L95.4242 128.864L99.5522 127.904ZM120.576 108.128L117.792 104.96L116.96 109.088L113.088 110.752L116.768 112.8L117.152 116.992L120.256 114.144L124.352 115.072L122.592 111.232L124.736 107.616L120.576 108.128ZM68.7682 37.216L65.6642 34.368L65.3122 38.56L61.6642 40.64L65.5362 42.272L66.4002 46.4L69.1522 43.2L73.3442 43.68L71.1682 40.064L72.8962 36.224L68.7682 37.216ZM48.3522 56.544L51.1042 59.744L51.9682 55.616L55.8402 53.984L52.1922 51.904L51.8402 47.712L48.7362 50.56L44.6402 49.6L46.3682 53.44L44.1922 57.056L48.3522 56.544ZM74.7522 129.408L76.0002 133.44L78.4322 130.016L82.6562 130.08L80.1602 126.688L81.5362 122.688L77.5362 124.032L74.1762 121.504L74.2082 125.728L70.7522 128.16L74.7522 129.408ZM93.5682 35.488L92.2882 31.456L89.8882 34.912L85.6642 34.88L88.1922 38.24L86.8482 42.24L90.8162 40.864L94.2082 43.36L94.1442 39.136L97.5682 36.672L93.5682 35.488ZM63.7762 29.792C73.6642 25.952 84.3842 24.96 94.7842 27.008C103.36 28.672 111.52 32.384 118.432 37.696L122.56 36.096C118.24 32.48 113.408 29.504 108.192 27.2C104.128 25.408 99.8722 24.096 95.5522 23.232C92.3202 22.592 89.0562 22.24 85.7922 22.144C77.7922 21.92 69.8882 23.296 62.3682 26.24C54.8482 29.184 48.0962 33.504 42.3682 39.072C36.8322 44.48 32.4162 50.816 29.3122 57.92C27.0402 63.136 25.5042 68.608 24.7682 74.176L28.8962 72.576C32.2242 53.28 45.5682 36.864 63.7762 29.792ZM72.1922 51.392C77.3122 49.408 82.8802 48.704 88.3202 49.44L94.7842 46.912C93.5682 46.528 92.3202 46.24 91.0722 45.984C84.2882 44.672 77.2802 45.312 70.7842 47.84C63.0082 50.88 56.6722 56.256 52.5122 63.392L58.9762 60.864C62.4962 56.64 67.0722 53.376 72.1922 51.392ZM96.0322 112.608C90.9122 114.592 85.3122 115.296 79.9042 114.56L73.4402 117.088C74.6562 117.472 75.9042 117.76 77.1522 118.016C83.9362 119.328 90.9442 118.688 97.4402 116.16C105.216 113.12 111.552 107.744 115.744 100.608L109.28 103.136C105.728 107.328 101.184 110.592 96.0322 112.608Z" fill="white" fill-opacity="0.25"/>
<path d="M105.539 61.2184L104.979 59.7939L98.8293 62.2119L98.0369 60.1967L104.187 57.7788L103.422 55.8331L106.271 54.7129L107.036 56.6586L113.116 54.268L113.908 56.2831L107.828 58.6738L108.388 60.0983L113.496 58.0901L114.274 60.0706L101.106 65.248L100.327 63.2676L105.539 61.2184ZM107.937 66.0924L105.227 67.158L105.664 68.2698C105.787 68.5825 105.923 68.9299 106.025 69.291L108.77 68.2118L107.937 66.0924ZM113.704 66.272L112.87 64.1526L110.091 65.2455L110.924 67.3649L113.704 66.272ZM117.034 67.0889L106.506 71.2281C106.842 73.1019 106.788 75.2092 105.792 77.1653C105.218 76.8291 103.807 76.3008 103.128 76.2067C104.454 73.5593 103.852 71.1085 103.1 69.1975L101.953 66.279L114.739 61.2519L117.034 67.0889ZM111.121 78.6803L119.564 75.3607L118.703 73.1718L112.31 75.6854C111.964 76.7441 111.57 77.7817 111.121 78.6803ZM121.83 71.9424L122.691 74.1312L136.623 68.6533L137.58 71.0854L123.647 76.5633L125.041 80.1072L132.406 77.2112L131.327 74.4664L134.454 73.2369L136.927 79.5256L133.8 80.7551L133.404 79.7475L112.522 87.9576L110.405 82.5723L113.601 81.3155L114.721 84.1645L121.914 81.3367L120.52 77.7928L106.831 83.1751L105.875 80.743L110.635 78.8715C109.853 78.6173 108.766 78.4029 108.038 78.2877C109.271 76.1181 110.031 73.0514 110.1 70.7778L113.298 70.4431C113.217 71.1567 113.102 71.884 113.001 72.646L130.894 65.6107L131.837 68.0081L121.83 71.9424ZM126.406 58.9912L120.812 61.1906C121.862 61.8207 123.149 62.2374 124.569 62.4814C125.373 61.3631 126.031 60.1814 126.406 58.9912ZM127.63 55.9827L129.439 55.9934C129.418 58.489 128.649 60.7168 127.417 62.6854C129.532 62.6563 131.877 62.2957 134.349 61.6447C133.977 62.4329 133.671 63.7968 133.61 64.6631C130.688 65.2906 127.942 65.4477 125.468 65.1766C123.878 66.845 121.948 68.3658 119.833 69.719C119.33 69.1545 118.405 68.435 117.735 68.0567C119.502 67.041 121.179 65.9001 122.553 64.5979C120.954 64.1032 119.51 63.3875 118.205 62.4162L118.727 62.0102L117.06 62.666L116.24 60.5813L116.761 60.3764C116.035 60.0601 114.976 59.7142 114.402 59.5791C116.459 57.5668 116.336 56.131 115.83 54.8455L114.929 52.5524L124.171 48.9186L125.66 52.7058C125.919 53.3659 126.084 53.5818 126.571 53.3905L128.134 52.7758C128.586 52.5982 129.406 52.2356 129.782 51.9674C130.076 52.6139 130.371 53.2604 130.734 53.8796C130.372 54.1825 129.656 54.5041 129.031 54.75L126.703 55.6653C124.583 56.4986 123.819 55.676 123.04 53.6956L122.453 52.2016L118.353 53.8135L118.407 53.9525C119.091 55.6897 119.3 57.854 117.421 60.1168L127.15 56.2918L127.63 55.9827Z" fill="white" fill-opacity="0.25"/>
<path d="M95.7335 86.3751L78.8478 93.0142L80.4188 97.0098L97.3045 90.3706L95.7335 86.3751ZM78.848 102.401L74.6268 91.6652L98.0791 82.4442L102.3 93.1801L98.9301 94.5052L98.3154 92.9417L81.4297 99.5808L82.0444 101.144L78.848 102.401ZM75.1668 83.5501L76.0275 85.739L84.1576 82.5424L83.297 80.3535L75.1668 83.5501ZM80.7971 73.9953L80.0047 71.9801L71.8746 75.1767L72.6669 77.1919L80.7971 73.9953ZM82.4364 78.1646L81.6577 76.1842L73.5275 79.3808L74.3062 81.3612L82.4364 78.1646ZM87.3193 81.2992L98.2638 76.9961L99.2337 79.4629L76.9974 88.2058L77.4892 89.4566L74.3274 90.6997L70.2019 80.207C69.7294 81.5561 69.1602 82.863 68.6194 84.0384C67.9219 83.5906 66.2835 82.7906 65.4259 82.4458C67.444 78.8042 68.7767 73.8274 68.9839 69.253L72.3544 69.051C72.3274 70.1046 72.1887 71.2824 72.0227 72.3906L79.1453 69.5902C78.3595 68.816 77.498 67.9513 76.6701 67.2739L79.2818 65.2442C80.4275 66.1175 81.7172 67.2551 82.6197 68.2241L92.3481 64.3991L93.277 66.7617L83.1665 70.737L83.9588 72.7522L92.3669 69.4463L93.2275 71.6351L84.8194 74.941L85.5981 76.9215L94.0757 73.5882L94.9363 75.7771L86.4587 79.1103L87.3193 81.2992Z" fill="white" fill-opacity="0.25"/>
<path d="M49.2122 109.159L61.5812 104.296C65.2641 102.848 65.4102 101.587 63.7581 96.0589C64.88 96.2596 66.5578 96.2417 67.5642 96.0466C69.3966 102.748 68.8487 105.129 62.8727 107.479L50.5733 112.315C44.5625 114.678 42.2492 114.304 40.3913 109.579L33.8068 92.8319L37.1423 91.5205L39.2051 96.7669L56.2297 90.0731L52.9512 81.7345L30.9928 90.3681L29.7497 87.2064L55.0435 77.2614L61.464 93.5911L58.1286 94.9026L57.4729 93.2349L40.4482 99.9286L43.7404 108.302C44.5874 110.456 45.4599 110.635 49.2122 109.159Z" fill="white" fill-opacity="0.25"/>
</svg>
