<svg xmlns="http://www.w3.org/2000/svg" viewBox="0 0 64 64" role="img" aria-label="TRON">
  <circle cx="32" cy="32" r="32" fill="#EB0029"/>
  <path fill="#fff" d="M50.2 21.4c-2.4-2.2-5.8-5.7-8.6-8.2l-.2-.1a3 3 0 0 0-.9-.5C34 11.4 10.5 7 9.9 7.1a1.3 1.3 0 0 0-.5.2l-.2.1a1.8 1.8 0 0 0-.4.7v.7l.1.1c3.4 9.7 13.9 33.8 16.6 41.2.2.5.5 1.4 1.1 1.5h.1c.3 0 1.6-1.8 1.6-1.8s23.3-28.4 25.7-31.4c.3-.4.6-.8.8-1.2.4-.9.1-1.8-.6-2.5ZM35.1 24.3l10.1-8.4 5.9 5.5-16 2.9Zm-3.9-.5L13.8 9.6l28.1 5.2-10.7 9Zm1.5 3.5 17.8-2.9-20.4 24.5 2.6-21.6ZM12.1 11l18.3 15.5-2.7 21.8L12.1 11Z"/>
</svg>
