<svg xmlns="http://www.w3.org/2000/svg" viewBox="0 0 128 128" fill="none">
  <circle cx="64" cy="64" r="60" fill="#2775CA"/>
  <circle cx="64" cy="64" r="46" stroke="white" stroke-width="7" opacity="0.92"/>
  <path
    d="M64 31.5V96.5"
    stroke="white"
    stroke-width="7"
    stroke-linecap="round"
    opacity="0.95"
  />
  <path
    d="M80.8 45.4C76.6 40.8 70.9 38.7 64.5 38.7C55.7 38.7 48.3 43.3 48.3 51.4C48.3 59.3 54.6 62.1 64.5 64.3C74.7 66.6 80.7 69.4 80.7 77.2C80.7 85.5 73.1 90 64.3 90C56.9 90 50.7 87.4 46.5 82.4"
    stroke="white"
    stroke-width="7"
    stroke-linecap="round"
    stroke-linejoin="round"
  />
  <path
    d="M36.2 46.6C31.9 51.4 29.4 57.5 29.4 64C29.4 70.5 31.9 76.6 36.2 81.4M91.8 46.6C96.1 51.4 98.6 57.5 98.6 64C98.6 70.5 96.1 76.6 91.8 81.4"
    stroke="white"
    stroke-width="6"
    stroke-linecap="round"
    opacity="0.9"
  />
</svg>
